<?xml version="1.0" encoding="iso-8859-1"?>
<!-- Generator: Adobe Illustrator 19.0.0, SVG Export Plug-In . SVG Version: 6.00 Build 0)  -->
<svg version="1.1" id="Capa_1" xmlns="http://www.w3.org/2000/svg" xmlns:xlink="http://www.w3.org/1999/xlink" x="0px" y="0px"
	 viewBox="0 0 512 512" style="enable-background:new 0 0 512 512;" xml:space="preserve">
<path style="fill:#FFFFFF;" d="M10,182v280c0,22.091,17.909,40,40,40h412c22.091,0,40-17.909,40-40V182L280.703,18.276
	c-14.679-10.86-34.728-10.86-49.407,0L10,182z"/>
<path style="fill:#A0E557;" d="M328.473,355.527H183.527L10,182v280c0,22.091,17.909,40,40,40h412c22.091,0,40-17.909,40-40V182
	L328.473,355.527z"/>
<path style="fill:#62CD4D;" d="M306.973,334.027c-28.151-28.151-73.794-28.151-101.945,0l-166.34,166.34
	C42.276,501.423,46.07,502,50,502h412c3.93,0,7.724-0.577,11.312-1.633L306.973,334.027z"/>
<path style="fill:#5A54E0;" d="M183.997,10h-83.994C50.296,10,10,50.296,10,100.003l0,0c0,49.707,40.296,90.003,90.003,90.003
	h60.349l42.21,42.211v-44.132c40.8-8.557,71.438-44.739,71.438-88.082l0,0C274,50.296,233.704,10,183.997,10z"/>
<path d="M507.947,173.961L286.65,10.237c-17.974-13.299-42.004-13.549-60.214-0.771C213.546,3.399,199.162,0,183.997,0h-83.994
	C44.861,0,0,44.861,0,100.003c0,23.105,7.88,44.403,21.089,61.354L4.053,173.961C1.504,175.847,0,178.83,0,182v280
	c0,27.57,22.43,50,50,50h412c27.57,0,50-22.43,50-50V182C512,178.83,510.496,175.847,507.947,173.961z M274.756,26.315
	l211.966,156.82l-158.249,158.25l-14.429-14.429c-32.006-32.005-84.082-32.005-116.088,0l-14.429,14.429L25.278,183.136l9.728-7.197
	c17.493,14.995,40.204,24.067,64.997,24.067h56.206l39.282,39.282c1.913,1.913,4.471,2.929,7.073,2.929
	c1.288,0,2.588-0.25,3.825-0.762c3.736-1.548,6.173-5.194,6.173-9.239v-36.361c18.977-5.666,36.065-16.982,48.745-32.419
	C275.941,145.622,284,123.095,284,100.003c0-31.684-14.814-59.97-37.876-78.305C255.658,18.525,266.301,20.06,274.756,26.315z
	 M95.197,458H256c5.522,0,10-4.477,10-10s-4.478-10-10-10H115.197l28-28h73.976c5.522,0,10-4.477,10-10s-4.478-10-10-10h-53.976
	l48.901-48.901c24.207-24.208,63.596-24.208,87.803,0L450.803,492H61.197L95.197,458z M100.003,20h83.994
	C228.11,20,264,55.889,264,100.003c0,37.651-26.701,70.58-63.49,78.295c-4.631,0.971-7.947,5.055-7.947,9.787v19.99l-25.14-25.14
	c-1.876-1.875-4.419-2.929-7.071-2.929h-60.349C55.89,180.006,20,144.117,20,100.003S55.89,20,100.003,20z M20,462V206.143
	l149.385,149.385L36.983,487.929c-0.241,0.241-0.466,0.491-0.678,0.75C26.634,483.693,20,473.61,20,462z M475.694,488.678
	c-0.211-0.258-0.437-0.509-0.678-0.75L342.615,355.527L444,254.143v83.027c0,5.523,4.478,10,10,10s10-4.477,10-10V234.143l28-28V462
	C492,473.61,485.366,483.693,475.694,488.678z"/>
<path d="M301.33,458c2.63,0,5.21-1.07,7.069-2.93c1.86-1.86,2.931-4.44,2.931-7.07s-1.07-5.21-2.931-7.07
	c-1.859-1.86-4.439-2.93-7.069-2.93s-5.21,1.07-7.07,2.93c-1.86,1.86-2.93,4.44-2.93,7.07s1.069,5.21,2.93,7.07
	S298.7,458,301.33,458z"/>
<path d="M454,368.09c-2.63,0-5.21,1.07-7.07,2.93c-1.86,1.86-2.93,4.44-2.93,7.07s1.069,5.21,2.93,7.07
	c1.86,1.86,4.44,2.93,7.07,2.93s5.21-1.07,7.069-2.93c1.86-1.86,2.931-4.44,2.931-7.07s-1.07-5.21-2.931-7.07
	C459.21,369.16,456.63,368.09,454,368.09z"/>
<path d="M141.77,109.82c2.641,0,5.21-1.07,7.08-2.93c1.86-1.86,2.92-4.44,2.92-7.07s-1.06-5.21-2.92-7.07
	c-1.87-1.86-4.439-2.93-7.08-2.93c-2.63,0-5.21,1.07-7.069,2.93c-1.86,1.86-2.931,4.44-2.931,7.07s1.07,5.21,2.931,7.07
	C136.56,108.75,139.14,109.82,141.77,109.82z"/>
<path d="M108.1,109.82c2.63,0,5.2-1.07,7.07-2.93c1.86-1.86,2.93-4.44,2.93-7.07s-1.069-5.21-2.93-7.07
	c-1.86-1.86-4.44-2.93-7.07-2.93c-2.64,0-5.21,1.07-7.08,2.93c-1.859,1.86-2.92,4.44-2.92,7.07c0,2.64,1.061,5.21,2.92,7.07
	C102.89,108.75,105.46,109.82,108.1,109.82z"/>
<path d="M175.45,109.82c2.63,0,5.21-1.07,7.069-2.93c1.86-1.86,2.931-4.44,2.931-7.07s-1.07-5.21-2.931-7.07
	c-1.859-1.86-4.439-2.93-7.069-2.93c-2.631,0-5.21,1.07-7.07,2.93s-2.93,4.44-2.93,7.07s1.069,5.21,2.93,7.07
	C170.24,108.75,172.819,109.82,175.45,109.82z"/>
<g>
</g>
<g>
</g>
<g>
</g>
<g>
</g>
<g>
</g>
<g>
</g>
<g>
</g>
<g>
</g>
<g>
</g>
<g>
</g>
<g>
</g>
<g>
</g>
<g>
</g>
<g>
</g>
<g>
</g>
</svg>
